<svg aria-hidden="true" style="position: absolute; width: 0; height: 0; overflow: hidden;" version="1.1" xmlns="http://www.w3.org/2000/svg" xmlns:xlink="http://www.w3.org/1999/xlink">
<defs>
<symbol id="icon-facebook" viewBox="0 0 32 32">
<title>facebook</title>
<path d="M17.333 13.333h4v4h-4v9.333h-4v-9.333h-4v-4h4v-1.673c0-1.585 0.499-3.588 1.491-4.683 0.992-1.097 2.231-1.644 3.715-1.644h2.795v4h-2.8c-0.664 0-1.2 0.536-1.2 1.199v2.801z"></path>
</symbol>
<symbol id="icon-pinterest" viewBox="0 0 32 32">
<title>pinterest</title>
<path d="M16.648 6.361c-5.64 0-8.484 4.044-8.484 7.416 0 2.044 0.775 3.859 2.431 4.535 0.273 0.112 0.516 0.005 0.595-0.295 0.055-0.209 0.184-0.737 0.243-0.956 0.081-0.295 0.049-0.4-0.169-0.66-0.479-0.563-0.784-1.296-0.784-2.329 0-3 2.244-5.685 5.845-5.685 3.189 0 4.941 1.951 4.941 4.549 0 3.424-1.516 6.312-3.765 6.312-1.243 0-2.172-1.027-1.873-2.287 0.357-1.507 1.048-3.129 1.048-4.213 0-0.972-0.523-1.781-1.6-1.781-1.269 0-2.291 1.312-2.291 3.072 0 1.121 0.381 1.879 0.381 1.879s-1.301 5.505-1.528 6.469c-0.453 1.92-0.068 4.275-0.033 4.513 0.017 0.139 0.199 0.175 0.28 0.068 0.117-0.153 1.631-2.023 2.143-3.887 0.148-0.528 0.836-3.26 0.836-3.26 0.415 0.785 1.617 1.477 2.9 1.477 3.817 0 6.405-3.477 6.405-8.137-0.004-3.52-2.987-6.8-7.52-6.8z"></path>
</symbol>
<symbol id="icon-chart" viewBox="0 0 32 32">
<title>chart</title>
<path d="M7.999 22.667c-0.903 0-1.789-0.312-2.497-0.877-0.835-0.668-1.359-1.62-1.476-2.681-0.119-1.061 0.184-2.107 0.852-2.941l5.333-6.667c1.304-1.633 3.844-1.961 5.524-0.697l2.232 1.672 2.912-3.639c0.761-0.955 1.9-1.503 3.123-1.503 0.905 0 1.791 0.309 2.497 0.876 0.835 0.668 1.361 1.621 1.477 2.684s-0.187 2.107-0.855 2.939l-5.333 6.667c-1.303 1.635-3.843 1.961-5.524 0.701l-2.232-1.675-2.912 3.639c-0.76 0.955-1.899 1.503-3.121 1.503zM13.333 10.667c-0.408 0-0.788 0.183-1.041 0.499l-5.333 6.668c-0.223 0.277-0.324 0.628-0.284 0.979 0.040 0.355 0.215 0.672 0.492 0.893 0.304 0.244 0.62 0.295 0.832 0.295 0.408 0 0.788-0.183 1.043-0.501l4.527-5.659 4.299 3.227c0.56 0.421 1.408 0.308 1.841-0.235l5.333-6.668c0.223-0.277 0.323-0.625 0.284-0.979-0.040-0.355-0.215-0.672-0.492-0.893-0.303-0.243-0.619-0.293-0.832-0.293-0.408 0-0.788 0.183-1.043 0.501l-4.527 5.656-4.299-3.223c-0.233-0.176-0.509-0.267-0.8-0.267z"></path>
<path d="M25.333 28h-18.667c-0.736 0-1.333-0.596-1.333-1.333s0.597-1.333 1.333-1.333h18.667c0.736 0 1.333 0.596 1.333 1.333s-0.597 1.333-1.333 1.333z"></path>
</symbol>
<symbol id="icon-tablet" viewBox="0 0 32 32">
<title>tablet</title>
<path d="M22.667 5.333h-12c-0.733 0-1.333 0.6-1.333 1.333v16c0 0.733 0.6 1.333 1.333 1.333h4.667c0 0.737 0.597 1.333 1.333 1.333s1.333-0.596 1.333-1.333h4.667c0.733 0 1.333-0.6 1.333-1.333v-16c0-0.733-0.6-1.333-1.333-1.333zM22.667 22.667h-12v-16h12v16z"></path>
<path d="M24 1.333h-14.667c-2.205 0-4 1.795-4 4v20c0 2.205 1.795 4 4 4h14.667c2.205 0 4-1.795 4-4v-20c0-2.205-1.795-4-4-4zM25.333 25.333c0 0.735-0.599 1.333-1.333 1.333h-14.667c-0.735 0-1.333-0.599-1.333-1.333v-20c0-0.735 0.599-1.333 1.333-1.333h14.667c0.735 0 1.333 0.599 1.333 1.333v20z"></path>
</symbol>
<symbol id="icon-email" viewBox="0 0 32 32">
<title>email</title>
<path d="M0 25.333c0 1.473 1.193 2.667 2.667 2.667h26.667c1.473 0 2.667-1.193 2.667-2.667l-0-18c0-1.473-1.193-2.667-2.667-2.667l-26.667 0c-1.473 0-2.667 1.193-2.667 2.667v18zM9.813 16.353l-6.1-6.14c-0.506-0.507-0.506-1.327 0-1.833 0.507-0.507 1.327-0.507 1.833 0l9.733 9.746c0.393 0.387 1.041 0.387 1.427 0l9.746-9.746c0.507-0.507 1.327-0.507 1.833 0s0.507 1.327 0 1.833l-6.107 6.14 6.107 6.099c0.507 0.507 0.507 1.327 0 1.833s-1.327 0.507-1.833 0l-6.1-6.093c0 0-1.906 1.94-2.253 2.287-0.541 0.527-1.287 0.854-2.101 0.854-0.827 0-1.573-0.333-2.113-0.874-0.353-0.347-2.247-2.266-2.247-2.266l-6.094 6.093c-0.506 0.507-1.326 0.507-1.833 0-0.506-0.507-0.506-1.327 0-1.833l6.101-6.1z"></path>
</symbol>
<symbol id="icon-laptop" viewBox="0 0 32 32">
<title>laptop</title>
<path d="M28.667 20v-16c0-1.473-1.193-2.667-2.667-2.667h-20c-1.473 0-2.667 1.193-2.667 2.667v16l-3.333 6.667v1.333c0 1.473 1.193 2.667 2.667 2.667h26.667c1.473 0 2.667-1.193 2.667-2.667v-1.333l-3.333-6.667zM8.133 4.667h15.733c0.813 0 1.467 0.653 1.467 1.467v10.4c0 0.813-0.653 1.467-1.467 1.467h-15.733c-0.813 0-1.467-0.653-1.467-1.467l0-10.4c0-0.813 0.653-1.467 1.467-1.467zM12 24h8l0.667 2.667h-9.333l0.667-2.667z"></path>
</symbol>
<symbol id="icon-photo" viewBox="0 0 32 32">
<title>photo</title>
<path d="M22.667 8.333c0 0.92 0.747 1.667 1.667 1.667s1.667-0.747 1.667-1.667-0.747-1.667-1.667-1.667-1.667 0.747-1.667 1.667zM6 17.333v1.833c0 0.827 0.673 1.5 1.5 1.5h18.5l-6.374-6.267c-0.533-0.533-1.387-0.533-1.919 0l-1.347 1.327-3.401-3.327c-0.533-0.533-1.493-0.533-2.019 0l-4.939 4.933zM0 28.667c0 1.473 1.193 2.667 2.667 2.667h26.667c1.473 0 2.667-1.193 2.667-2.667l-0-25.333c0-1.473-1.193-2.667-2.667-2.667l-26.667 0c-1.473 0-2.667 1.193-2.667 2.667v25.333zM4.8 4h22.4c0.813 0 1.467 0.653 1.467 1.467v16.4c0 0.813-0.653 1.467-1.467 1.467l-22.4-0c-0.813 0-1.467-0.653-1.467-1.467v-16.4c0-0.813 0.653-1.467 1.467-1.467z"></path>
</symbol>
<symbol id="icon-media" viewBox="0 0 32 32">
<title>media</title>
<path d="M0 29.333c0 1.473 1.193 2.667 2.667 2.667h26.667c1.473 0 2.667-1.193 2.667-2.667l-0-18.667c0-1.473-1.193-2.667-2.667-2.667h-11.687l5.207-5.207c0.641-0.64 0.641-1.673 0-2.313s-1.673-0.64-2.313 0l-7.527 7.52h-0.033l-5.52-5.52c-0.64-0.64-1.673-0.64-2.313 0s-0.64 1.673 0 2.313l3.2 3.207h-5.68c-1.473 0-2.667 1.193-2.667 2.667v18.667zM4.8 11.333h16.4c0.813 0 1.467 0.653 1.467 1.467v14.4c0 0.813-0.653 1.467-1.467 1.467h-16.4c-0.813 0-1.467-0.653-1.467-1.467v-14.4c0-0.813 0.653-1.467 1.467-1.467zM25.333 13c0-0.92 0.747-1.667 1.667-1.667s1.667 0.747 1.667 1.667-0.747 1.667-1.667 1.667-1.667-0.747-1.667-1.667zM25.333 18.333c0-0.92 0.747-1.667 1.667-1.667s1.667 0.747 1.667 1.667-0.747 1.667-1.667 1.667-1.667-0.747-1.667-1.667z"></path>
</symbol>
<symbol id="icon-music" viewBox="0 0 32 32">
<title>music</title>
<path d="M10 19.953c-0.8-0.393-1.707-0.62-2.667-0.62-3.313 0-6 2.687-6 6s2.687 6 6 6 6-2.686 6-6v-13.333c0-0.733 0.6-1.333 1.333-1.333h11.333c0.733 0 1.333 0.6 1.333 1.333v7.953c-0.8-0.393-1.707-0.62-2.667-0.62-3.314 0-6 2.687-6 6s2.686 6 6 6 6-2.686 6-6v-22.533c0-0.813-0.653-1.467-1.467-1.467h-17.733c-0.813 0-1.467 0.653-1.467 1.467v17.153z"></path>
</symbol>
<symbol id="icon-cart" viewBox="0 0 32 32">
<title>cart</title>
<path d="M16.667 25c0-0.587-0.1-1.147-0.287-1.667h3.901c-0.18 0.52-0.28 1.080-0.28 1.667 0 2.761 2.239 5 5 5s5-2.239 5-5c0-2.76-2.24-5-5-5h-11c-0.733 0-1.333-0.6-1.333-1.333s0.6-1.333 1.333-1.333h11.467c1.207 0 2.246-0.707 2.719-1.733 0.181-0.387 3.634-8.26 3.634-8.26 0.093-0.214 0.18-0.427 0.18-0.673 0-0.733-0.6-1.333-1.333-1.333l-20.814-0-0.56-1.727c-0.259-0.927-0.986-1.607-1.959-1.607h-5.667c-0.92 0-1.667 0.747-1.667 1.667s0.747 1.667 1.667 1.667h3.5c0.593 0 1.093 0.387 1.267 0.913l2.813 14.379c-1.539 0.847-2.58 2.494-2.58 4.374 0 2.761 2.239 5 5 5s5-2.239 5-5zM13.333 25c0 0.92-0.747 1.667-1.667 1.667s-1.667-0.747-1.667-1.667 0.747-1.667 1.667-1.667 1.667 0.747 1.667 1.667zM26.667 25c0 0.92-0.747 1.667-1.667 1.667s-1.667-0.747-1.667-1.667 0.747-1.667 1.667-1.667 1.667 0.747 1.667 1.667z"></path>
</symbol>
<symbol id="icon-news" viewBox="0 0 32 32">
<title>news</title>
<path d="M17.667 18.667h-9.333c-0.92 0-1.667 0.747-1.667 1.667s0.747 1.667 1.667 1.667h9.333c0.92 0 1.667-0.747 1.667-1.667s-0.747-1.667-1.667-1.667zM0 26c0 1.473 1.193 2.667 2.667 2.667h26.667c1.473 0 2.667-1.193 2.667-2.667l-0-20c0-1.473-1.193-2.667-2.667-2.667h-26.667c-1.473 0-2.667 1.193-2.667 2.667v20zM4.8 6.667h22.4c0.813 0 1.467 0.653 1.467 1.467v1.867h-25.333v-1.867c0-0.813 0.653-1.467 1.467-1.467zM3.333 15.333h25.333v8.533c0 0.813-0.653 1.467-1.467 1.467h-22.4c-0.813 0-1.467-0.653-1.467-1.467v-8.533z"></path>
</symbol>
<symbol id="icon-locked" viewBox="0 0 32 32">
<title>locked</title>
<path d="M7.333 8.667v4.667l-2-0c-1.473 0-2.667 1.193-2.667 2.667v13.333c0 1.473 1.193 2.667 2.667 2.667h21.333c1.473 0 2.667-1.193 2.667-2.667v-13.333c0-1.473-1.193-2.667-2.667-2.667h-2v-4.667c0-4.787-3.88-8.667-8.667-8.667s-8.667 3.88-8.667 8.667zM10.667 13.333v-4.667c0-2.947 2.387-5.333 5.333-5.333s5.333 2.387 5.333 5.333v4.667h-10.667zM13.333 20.667c0-1.473 1.193-2.667 2.667-2.667s2.667 1.193 2.667 2.667c0 0.94-0.487 1.767-1.22 2.24 0 0 0.261 1.573 0.553 3.427 0 0.553-0.447 1-1 1h-2c-0.553 0-1-0.447-1-1l0.553-3.427c-0.733-0.473-1.22-1.3-1.22-2.24z"></path>
</symbol>
<symbol id="icon-location" viewBox="0 0 18 32">
<title>location</title>
<path d="M13.714 11.429c0-2.518-2.054-4.571-4.571-4.571s-4.571 2.054-4.571 4.571 2.054 4.571 4.571 4.571 4.571-2.054 4.571-4.571zM18.286 11.429c0 1.089-0.125 2.214-0.589 3.196l-6.5 13.821c-0.375 0.786-1.196 1.268-2.054 1.268s-1.679-0.482-2.036-1.268l-6.518-13.821c-0.464-0.982-0.589-2.107-0.589-3.196 0-5.054 4.089-9.143 9.143-9.143s9.143 4.089 9.143 9.143z"></path>
</symbol>
<symbol id="icon-twitter" viewBox="0 0 30 32">
<title>twitter</title>
<path d="M28.929 7.286c-0.786 1.143-1.768 2.161-2.893 2.982 0.018 0.25 0.018 0.5 0.018 0.75 0 7.625-5.804 16.411-16.411 16.411-3.268 0-6.304-0.946-8.857-2.589 0.464 0.054 0.911 0.071 1.393 0.071 2.696 0 5.179-0.911 7.161-2.464-2.536-0.054-4.661-1.714-5.393-4 0.357 0.054 0.714 0.089 1.089 0.089 0.518 0 1.036-0.071 1.518-0.196-2.643-0.536-4.625-2.857-4.625-5.661v-0.071c0.768 0.429 1.661 0.696 2.607 0.732-1.554-1.036-2.571-2.804-2.571-4.804 0-1.071 0.286-2.054 0.786-2.911 2.839 3.5 7.107 5.786 11.893 6.036-0.089-0.429-0.143-0.875-0.143-1.321 0-3.179 2.571-5.768 5.768-5.768 1.661 0 3.161 0.696 4.214 1.821 1.304-0.25 2.554-0.732 3.661-1.393-0.429 1.339-1.339 2.464-2.536 3.179 1.161-0.125 2.286-0.446 3.321-0.893z"></path>
</symbol>
<symbol id="icon-star" viewBox="0 0 32 32">
<title>star</title>
<path d="M17.196 2.076c-0.123-0.252-0.331-0.469-0.605-0.605-0.66-0.325-1.46-0.055-1.785 0.605l-3.811 7.719-8.521 1.247c-0.277 0.039-0.548 0.169-0.761 0.388-0.515 0.528-0.503 1.372 0.024 1.885l6.164 6.004-1.455 8.483c-0.048 0.276-0.008 0.575 0.135 0.845 0.343 0.652 1.149 0.903 1.801 0.56l7.619-4.007 7.62 4.007c0.248 0.132 0.544 0.185 0.845 0.135 0.725-0.124 1.213-0.813 1.089-1.54l-1.455-8.483 6.164-6.004c0.201-0.195 0.345-0.459 0.389-0.763 0.107-0.728-0.397-1.405-1.127-1.512l-8.52-1.245zM16 5.679l2.924 5.925c0.201 0.407 0.581 0.665 1.003 0.729l6.541 0.956-4.732 4.609c-0.325 0.317-0.455 0.759-0.384 1.18l1.116 6.511-5.848-3.076c-0.401-0.211-0.863-0.197-1.241 0l-5.848 3.076 1.116-6.511c0.077-0.448-0.079-0.881-0.384-1.18l-4.732-4.609 6.543-0.957c0.448-0.065 0.812-0.347 1.003-0.728z"></path>
</symbol>
<symbol id="icon-graph" viewBox="0 0 32 32">
<title>graph</title>
<path d="M27.2 1.6h-3.2c-0.883 0-1.6 0.715-1.6 1.6v27.187h6.4v-27.187c0-0.885-0.715-1.6-1.6-1.6zM17.6 11.2h-3.2c-0.883 0-1.6 0.715-1.6 1.6v17.587h6.4v-17.587c0-0.885-0.715-1.6-1.6-1.6zM8 20.8h-3.2c-0.883 0-1.6 0.715-1.6 1.6v7.987h6.4v-7.987c0-0.885-0.715-1.6-1.6-1.6z"></path>
</symbol>
<symbol id="icon-google" viewBox="0 0 32 32">
<title>google</title>
<path d="M3.182 8.942c0 2.39 0.798 4.115 2.371 5.128 1.29 0.832 2.784 0.957 3.562 0.957 0.189 0 0.341-0.010 0.446-0.016 0 0-0.246 1.606 0.944 3.194h-0.054c-2.062 0-8.789 0.43-8.789 5.963 0 5.626 6.178 5.912 7.418 5.912 0.098 0 0.155-0.003 0.155-0.003 0.013 0 0.101 0.003 0.253 0.003 0.795 0 2.851-0.099 4.76-1.029 2.477-1.2 3.733-3.294 3.733-6.216 0-2.822-1.914-4.502-3.31-5.731-0.853-0.75-1.59-1.397-1.59-2.026 0-0.64 0.539-1.122 1.219-1.731 1.102-0.984 2.142-2.387 2.142-5.040 0-2.331-0.302-3.898-2.166-4.891 0.194-0.099 0.882-0.171 1.221-0.219 1.010-0.138 2.486-0.294 2.486-1.118v-0.158h-7.358c-0.074 0.003-7.442 0.275-7.442 7.022zM15.061 23.363c0.141 2.25-1.784 3.909-4.675 4.118-2.936 0.216-5.352-1.106-5.493-3.354-0.069-1.082 0.406-2.138 1.336-2.981 0.942-0.853 2.237-1.381 3.645-1.485 0.166-0.010 0.331-0.019 0.496-0.019 2.718 0.002 4.558 1.598 4.691 3.72zM13.139 7.402c0.722 2.541-0.368 5.194-2.106 5.685-0.2 0.056-0.405 0.083-0.614 0.083-1.59 0-3.166-1.61-3.752-3.829-0.326-1.242-0.299-2.333 0.075-3.379 0.366-1.032 1.029-1.725 1.861-1.96 0.2-0.056 0.406-0.085 0.616-0.085 1.92 0 3.155 0.797 3.92 3.485zM25.6 12.8v-4.8h-3.2v4.8h-4.8v3.2h4.8v4.8h3.2v-4.8h4.8v-3.2h-4.8z"></path>
</symbol>
<symbol id="icon-phone" viewBox="0 0 32 32">
<title>phone</title>
<path d="M22 0h-12c-2.209 0-4 1.791-4 4v24c0 2.209 1.791 4 4 4h12c2.209 0 4-1.791 4-4v-24c0-2.209-1.791-4-4-4zM16.5 3h3c0.275 0 0.5 0.224 0.5 0.5s-0.225 0.5-0.5 0.5h-3c-0.276 0-0.5-0.224-0.5-0.5s0.224-0.5 0.5-0.5zM13 2c0.552 0 1 0.448 1 1s-0.448 1-1 1-1-0.448-1-1 0.448-1 1-1zM18 29c0 0.553-0.447 1-1 1h-2c-0.552 0-1-0.447-1-1v-2c0-0.553 0.448-1 1-1h2c0.553 0 1 0.447 1 1v2zM24 23c0 0.553-0.447 1-1 1h-14c-0.552 0-1-0.447-1-1v-16c0-0.552 0.448-1 1-1h14c0.553 0 1 0.448 1 1v16z"></path>
</symbol>
<symbol id="icon-heart" viewBox="0 0 32 32">
<title>heart</title>
<path d="M29.193 5.265c-3.629-3.596-9.432-3.671-13.191-0.288-3.76-3.383-9.561-3.308-13.192 0.288-3.741 3.704-3.741 9.709 0 13.415 1.069 1.059 11.053 10.941 11.053 10.941 1.183 1.172 3.096 1.172 4.278 0 0 0 10.932-10.822 11.053-10.941 3.742-3.706 3.742-9.711-0.001-13.415zM27.768 17.268l-11.053 10.941c-0.393 0.391-1.034 0.391-1.425 0l-11.053-10.941c-2.95-2.92-2.95-7.671 0-10.591 2.844-2.815 7.416-2.914 10.409-0.222l1.356 1.22 1.355-1.22c2.994-2.692 7.566-2.594 10.41 0.222 2.95 2.919 2.95 7.67 0.001 10.591zM9.253 7.501c0.277 0 0.5 0.224 0.5 0.5s-0.224 0.5-0.5 0.5h-0.001c-1.794 0-3.249 1.455-3.249 3.249v0.001c0 0.276-0.224 0.5-0.5 0.5s-0.5-0.224-0.5-0.5v0c0-2.346 1.901-4.247 4.246-4.249 0.002 0 0.002-0.001 0.004-0.001z"></path>
</symbol>
</defs>
</svg>
